<?xml version="1.0" encoding="UTF-8" standalone="no"?>
<!-- Generated by IcoMoon.io -->

<svg
   version="1.1"
   width="512"
   height="512"
   viewBox="0 0 512 512"
   id="svg7"
   sodipodi:docname="facebook_light.svg"
   inkscape:version="1.1.2 (b8e25be833, 2022-02-05)"
   xmlns:inkscape="http://www.inkscape.org/namespaces/inkscape"
   xmlns:sodipodi="http://sodipodi.sourceforge.net/DTD/sodipodi-0.dtd"
   xmlns="http://www.w3.org/2000/svg"
   xmlns:svg="http://www.w3.org/2000/svg">
  <defs
     id="defs11" />
  <sodipodi:namedview
     id="namedview9"
     pagecolor="#ffffff"
     bordercolor="#666666"
     borderopacity="1.0"
     inkscape:pageshadow="2"
     inkscape:pageopacity="0.0"
     inkscape:pagecheckerboard="0"
     showgrid="false"
     inkscape:zoom="1.578125"
     inkscape:cx="255.68317"
     inkscape:cy="179.9604"
     inkscape:window-width="1920"
     inkscape:window-height="1001"
     inkscape:window-x="-9"
     inkscape:window-y="-9"
     inkscape:window-maximized="1"
     inkscape:current-layer="svg7" />
  <title
     id="title2" />
  <g
     id="icomoon-ignore" />
  <path
     d="M304 96h80v-96h-80c-61.757 0-112 50.243-112 112v48h-64v96h64v256h96v-256h80l16-96h-96v-48c0-8.673 7.327-16 16-16z"
     id="path5" />
  <path
     style="fill:#ffffff;stroke-width:0.633663"
     d="m 192.31683,383.68317 v -128 h -32 -32 V 207.84158 160 h 31.94753 31.94752 l 0.29755,-30.57426 c 0.31734,-32.608371 0.46483,-34.403134 3.84802,-46.821662 10.27572,-37.71876 40.52787,-67.970906 78.24663,-78.2466312 13.21069,-3.5989904 12.67507,-3.56607482 62.66325,-3.8508176 L 383.68317,0.24223515 V 48.121118 96 h -41.84214 c -46.50051,0 -44.29965,-0.193483 -49.00568,4.30817 -4.8782,4.66635 -4.80578,4.16243 -4.82143,33.55322 L 288,160 h 47.89194 47.89192 l -0.36017,1.74257 c -0.42148,2.03916 -15.58211,93.11475 -15.58211,93.60755 0,0.18317 -17.96435,0.33305 -39.92079,0.33305 H 288 v 128 128 h -47.84158 -47.84159 z"
     id="path161" />
</svg>
