<?xml version="1.0" encoding="UTF-8" standalone="no"?>
<!-- Generated by IcoMoon.io -->

<svg
   version="1.1"
   width="512"
   height="512"
   viewBox="0 0 512 512"
   id="svg11"
   sodipodi:docname="instagram_light.svg"
   inkscape:version="1.1.2 (b8e25be833, 2022-02-05)"
   xmlns:inkscape="http://www.inkscape.org/namespaces/inkscape"
   xmlns:sodipodi="http://sodipodi.sourceforge.net/DTD/sodipodi-0.dtd"
   xmlns="http://www.w3.org/2000/svg"
   xmlns:svg="http://www.w3.org/2000/svg">
  <defs
     id="defs15" />
  <sodipodi:namedview
     id="namedview13"
     pagecolor="#ffffff"
     bordercolor="#666666"
     borderopacity="1.0"
     inkscape:pageshadow="2"
     inkscape:pageopacity="0.0"
     inkscape:pagecheckerboard="0"
     showgrid="false"
     inkscape:zoom="1.578125"
     inkscape:cx="255.68317"
     inkscape:cy="254.73267"
     inkscape:window-width="1920"
     inkscape:window-height="1001"
     inkscape:window-x="-9"
     inkscape:window-y="-9"
     inkscape:window-maximized="1"
     inkscape:current-layer="svg11" />
  <title
     id="title2" />
  <g
     id="icomoon-ignore" />
  <path
     d="M256 46.1c68.4 0 76.5 0.3 103.4 1.5 25 1.1 38.5 5.3 47.5 8.8 11.9 4.6 20.5 10.2 29.4 19.1 9 9 14.5 17.5 19.2 29.4 3.5 9 7.7 22.6 8.8 47.5 1.2 27 1.5 35.1 1.5 103.4s-0.3 76.5-1.5 103.4c-1.1 25-5.3 38.5-8.8 47.5-4.6 11.9-10.2 20.5-19.1 29.4-9 9-17.5 14.5-29.4 19.2-9 3.5-22.6 7.7-47.5 8.8-27 1.2-35.1 1.5-103.4 1.5s-76.5-0.3-103.4-1.5c-25-1.1-38.5-5.3-47.5-8.8-11.9-4.6-20.5-10.2-29.4-19.1-9-9-14.5-17.5-19.2-29.4-3.5-9-7.7-22.6-8.8-47.5-1.2-27-1.5-35.1-1.5-103.4s0.3-76.5 1.5-103.4c1.1-25 5.3-38.5 8.8-47.5 4.6-11.9 10.2-20.5 19.1-29.4 9-9 17.5-14.5 29.4-19.2 9-3.5 22.6-7.7 47.5-8.8 26.9-1.2 35-1.5 103.4-1.5zM256 0c-69.5 0-78.2 0.3-105.5 1.5-27.2 1.2-45.9 5.6-62.1 11.9-16.9 6.6-31.2 15.3-45.4 29.6-14.3 14.2-23 28.5-29.6 45.3-6.3 16.3-10.7 34.9-11.9 62.1-1.2 27.4-1.5 36.1-1.5 105.6s0.3 78.2 1.5 105.5c1.2 27.2 5.6 45.9 11.9 62.1 6.6 16.9 15.3 31.2 29.6 45.4 14.2 14.2 28.5 23 45.3 29.5 16.3 6.3 34.9 10.7 62.1 11.9 27.3 1.2 36 1.5 105.5 1.5s78.2-0.3 105.5-1.5c27.2-1.2 45.9-5.6 62.1-11.9 16.8-6.5 31.1-15.3 45.3-29.5s23-28.5 29.5-45.3c6.3-16.3 10.7-34.9 11.9-62.1 1.2-27.3 1.5-36 1.5-105.5s-0.3-78.2-1.5-105.5c-1.2-27.2-5.6-45.9-11.9-62.1-6.3-17-15-31.3-29.3-45.5-14.2-14.2-28.5-23-45.3-29.5-16.3-6.3-34.9-10.7-62.1-11.9-27.4-1.3-36.1-1.6-105.6-1.6v0z"
     id="path5" />
  <path
     d="M256 124.5c-72.6 0-131.5 58.9-131.5 131.5s58.9 131.5 131.5 131.5 131.5-58.9 131.5-131.5c0-72.6-58.9-131.5-131.5-131.5zM256 341.3c-47.1 0-85.3-38.2-85.3-85.3s38.2-85.3 85.3-85.3c47.1 0 85.3 38.2 85.3 85.3s-38.2 85.3-85.3 85.3z"
     id="path7" />
  <path
     d="M423.4 119.3c0 16.955-13.745 30.7-30.7 30.7s-30.7-13.745-30.7-30.7c0-16.955 13.745-30.7 30.7-30.7s30.7 13.745 30.7 30.7z"
     id="path9" />
  <path
     style="fill:#ffffff;stroke-width:0.633663"
     d="M 247.76238,386.76028 C 230.65382,385.83637 215.27223,381.77531 198.9703,373.87817 172.13148,360.87664 151.15464,339.90207 138.1152,313.0297 129.02074,294.28735 125.08181,277.05194 125.08181,256 c 0,-21.05194 3.93893,-38.28735 13.03339,-57.0297 17.07034,-35.17948 48.84785,-60.97789 86.52343,-70.24361 15.18757,-3.73515 34.22012,-4.74235 49.37803,-2.61309 37.19985,5.22554 70.64069,26.36289 91.30125,57.70989 14.51682,22.02548 21.61622,45.78743 21.60217,72.30329 -0.0111,20.95348 -3.96368,38.20769 -13.03528,56.90292 -13.03115,26.85531 -33.86467,47.69648 -60.86455,60.88691 -20.4416,9.98648 -41.48244,14.12761 -65.25787,12.84367 z m 23.12871,-46.58988 c 30.89124,-5.14074 56.71497,-27.55241 66.49557,-57.70961 2.84894,-8.78435 3.98783,-16.34126 3.98783,-26.46079 0,-5.44407 -0.40345,-11.13777 -1.04431,-14.73802 -6.35593,-35.70693 -33.93005,-63.29638 -69.53318,-69.57189 -7.80729,-1.37613 -21.78671,-1.37613 -29.594,0 -31.35015,5.52586 -56.39898,27.27004 -66.58262,57.79849 -4.02385,12.06266 -5.19426,28.59254 -2.93154,41.40251 5.50417,31.16082 27.69253,56.68122 57.79239,66.47111 13.39571,4.35691 26.68712,5.25826 41.40986,2.8082 z"
     id="path109" />
  <path
     style="fill:#ffffff;stroke-width:0.633663"
     d="m 386.38426,148.94048 c -11.65963,-2.64681 -20.87934,-12.08766 -23.38014,-23.94092 -3.85453,-18.26966 10.85798,-35.999641 29.84188,-35.962336 15.68044,0.03081 28.88187,12.457476 29.96625,28.207596 1.37065,19.90798 -17.1949,36.06169 -36.42799,31.69566 z"
     id="path148" />
  <path
     style="fill:#ffffff;stroke-width:0.633663"
     d="m 185.9802,511.25474 c -17.49646,-0.28428 -43.44495,-1.52596 -52.27723,-2.50155 C 67.421903,501.43197 22.733742,464.32949 7.6606422,404.10616 1.5408646,379.6551 0.32140559,355.08984 0.32414124,256.31683 0.32580518,196.23809 0.8728256,164.28684 2.2443463,144.15842 5.5494514,95.652727 21.269712,61.236653 51.960396,35.315996 72.106823,18.30078 97.87456,7.7995197 129.90099,3.5524591 c 19.60255,-2.59951665 57.4155,-3.4181343 140.9901,-3.05231399 70.85695,0.310153 88.51704,0.75619279 107.08911,2.70474259 33.92209,3.5590493 63.02253,15.3327903 84.4166,34.1540993 22.69806,19.96849 36.66529,45.299161 43.51518,78.918243 3.63444,17.83772 4.46281,32.82665 5.07781,91.88119 0.8112,77.89366 -0.27837,152.27655 -2.50613,171.0891 -4.20589,35.51713 -15.66436,62.92048 -35.31908,84.46682 -26.03523,28.54092 -58.90812,42.78539 -106.27349,46.05037 -18.3657,1.26599 -59.47808,1.89643 -115.32673,1.7685 -31.01783,-0.0711 -60.5307,-0.19636 -65.58416,-0.27847 z m 165.70297,-46.45347 c 24.26675,-1.14163 37.34361,-3.06119 50.28534,-7.38143 13.39127,-4.47031 23.33239,-10.3605 32.86231,-19.47116 11.18054,-10.68867 17.91865,-21.52167 22.93586,-36.87445 6.90187,-21.11989 7.66558,-33.30021 8.10296,-129.23265 0.39977,-87.68517 -0.42382,-122.26228 -3.36581,-141.30693 -2.7586,-17.85754 -9.0669,-34.318767 -17.48402,-45.623759 C 440.52166,78.86945 431.19621,69.763194 425.44407,65.795276 412.71618,57.01537 396.73359,51.384007 377.34653,48.84841 360.2644,46.614269 343.55192,46.257426 256,46.257426 c -87.50437,0 -104.27197,0.357404 -121.30281,2.585585 -15.06748,1.971311 -27.68486,5.689552 -38.659367,11.392614 -8.165988,4.24357 -13.405813,8.105565 -20.336709,14.989082 -14.32748,14.229538 -22.399,31.469703 -26.191746,55.943613 -2.85281,18.40867 -3.803433,58.65918 -3.374752,142.89109 0.337994,66.41271 0.864245,86.20339 2.695944,101.38613 3.086436,25.58312 10.77204,43.93912 24.573537,58.69048 14.977337,16.00813 33.391123,24.67682 60.988713,28.71176 7.72464,1.1294 25.05811,2.04677 48.7359,2.57934 30.38797,0.6835 150.17688,0.23872 168.55446,-0.62585 z"
     id="path187" />
</svg>
