<?xml version="1.0" encoding="UTF-8" standalone="no"?>
<!-- Generated by IcoMoon.io -->

<svg
   version="1.1"
   width="512"
   height="512"
   viewBox="0 0 512 512"
   id="svg7"
   sodipodi:docname="linkedin_dark.svg"
   inkscape:version="1.1.2 (b8e25be833, 2022-02-05)"
   xmlns:inkscape="http://www.inkscape.org/namespaces/inkscape"
   xmlns:sodipodi="http://sodipodi.sourceforge.net/DTD/sodipodi-0.dtd"
   xmlns="http://www.w3.org/2000/svg"
   xmlns:svg="http://www.w3.org/2000/svg">
  <defs
     id="defs11" />
  <sodipodi:namedview
     id="namedview9"
     pagecolor="#ffffff"
     bordercolor="#666666"
     borderopacity="1.0"
     inkscape:pageshadow="2"
     inkscape:pageopacity="0.0"
     inkscape:pagecheckerboard="0"
     showgrid="false"
     inkscape:zoom="1.578125"
     inkscape:cx="255.68317"
     inkscape:cy="254.73267"
     inkscape:window-width="1920"
     inkscape:window-height="1001"
     inkscape:window-x="-9"
     inkscape:window-y="-9"
     inkscape:window-maximized="1"
     inkscape:current-layer="svg7" />
  <title
     id="title2" />
  <g
     id="icomoon-ignore" />
  <path
     d="M464 0h-416c-26.4 0-48 21.6-48 48v416c0 26.4 21.6 48 48 48h416c26.4 0 48-21.6 48-48v-416c0-26.4-21.6-48-48-48zM192 416h-64v-224h64v224zM160 160c-17.7 0-32-14.3-32-32s14.3-32 32-32c17.7 0 32 14.3 32 32s-14.3 32-32 32zM416 416h-64v-128c0-17.7-14.3-32-32-32s-32 14.3-32 32v128h-64v-224h64v39.7c13.2-18.1 33.4-39.7 56-39.7 39.8 0 72 35.8 72 80v144z"
     id="path5" />
  <path
     style="fill:#ffffff;stroke-width:0.633663"
     d="M 38.879257,510.72553 C 29.52602,508.86249 21.802321,504.63025 14.586035,497.41396 9.2580461,492.08598 6.2977755,487.69101 3.6923784,481.2407 0.09085795,472.32423 0.28554208,486.07184 0.4667821,253.46535 L 0.63366337,39.287129 2.1315658,34.851485 C 7.6556699,18.493306 18.493306,7.6556699 34.851485,2.1315658 L 39.287129,0.63366337 253.46535,0.4667821 C 486.07184,0.28554211 472.32423,0.09085794 481.2407,3.6923784 c 6.45031,2.6053971 10.84528,5.5656677 16.17326,10.8936566 7.39517,7.395163 11.47658,14.969303 13.35405,24.781971 1.37791,7.201677 1.37791,426.062314 0,433.263984 -1.87747,9.81267 -5.95888,17.38681 -13.35405,24.78197 -7.39516,7.39517 -14.9693,11.47658 -24.78197,13.35405 -6.84508,1.30968 -427.171021,1.26852 -433.752733,-0.0425 z M 192.31683,303.84158 V 191.68317 H 160 127.68317 V 303.84158 416 H 160 192.31683 Z m 95.68798,49.26733 c 0.003,-35.25415 0.26735,-65.17428 0.60226,-68.08675 2.6028,-22.63498 26.4221,-35.43851 46.25905,-24.86553 6.81476,3.63223 12.55735,10.49252 15.35066,18.33842 l 1.46639,4.11881 0.18556,66.69307 L 352.05429,416 H 384.02715 416 v -76.5616 c 0,-84.77791 0.11695,-82.09019 -4.13093,-94.93576 -10.11892,-30.59953 -35.07301,-51.00742 -64.30471,-52.58952 -11.24354,-0.60852 -18.51424,1.61272 -30.09901,9.19542 -7.21178,4.72041 -17.74739,14.83499 -24.74369,23.75489 l -4.40483,5.6159 -0.16757,-19.39808 -0.16757,-19.39808 H 255.99084 224 V 303.84158 416 h 32 32 l 0.005,-62.89109 z M 168.91469,158.97884 c 10.23281,-3.03607 17.95331,-10.27745 21.59806,-20.25772 1.95449,-5.35191 1.95449,-16.09033 0,-21.44224 C 185.68724,104.06536 174.12195,96 160,96 c -14.07902,0 -25.70191,8.10553 -30.51275,21.27888 -1.95449,5.35191 -1.95449,16.09033 0,21.44224 1.88706,5.16727 4.65598,9.27945 8.79612,13.06331 6.23823,5.70138 12.60102,8.12906 21.4432,8.18149 3.53497,0.021 7.07088,-0.3589 9.18812,-0.98708 z"
     id="path87" />
</svg>
