<?xml version="1.0" encoding="UTF-8" standalone="no"?>
<!-- Generated by IcoMoon.io -->

<svg
   version="1.1"
   width="26"
   height="26"
   viewBox="0 0 512 512"
   id="svg7"
   sodipodi:docname="stackoverflow_light.svg"
   inkscape:version="1.1.2 (b8e25be833, 2022-02-05)"
   xmlns:inkscape="http://www.inkscape.org/namespaces/inkscape"
   xmlns:sodipodi="http://sodipodi.sourceforge.net/DTD/sodipodi-0.dtd"
   xmlns="http://www.w3.org/2000/svg"
   xmlns:svg="http://www.w3.org/2000/svg">
  <defs
     id="defs11" />
  <sodipodi:namedview
     id="namedview9"
     pagecolor="#ffffff"
     bordercolor="#666666"
     borderopacity="1.0"
     inkscape:pageshadow="2"
     inkscape:pageopacity="0.0"
     inkscape:pagecheckerboard="0"
     showgrid="false"
     inkscape:zoom="1.578125"
     inkscape:cx="255.68317"
     inkscape:cy="254.73267"
     inkscape:window-width="1920"
     inkscape:window-height="1001"
     inkscape:window-x="-9"
     inkscape:window-y="-9"
     inkscape:window-maximized="1"
     inkscape:current-layer="svg7" />
  <title
     id="title2" />
  <g
     id="icomoon-ignore" />
  <path
     d="M512 320v192h-512v-192h64v128h384v-128zM96 352h320v64h-320zM103.576 282.733l13.849-62.482 312.416 69.248-13.849 62.482zM139.829 154.279l27.046-58.003 290.016 135.232-27.046 58.003zM495.861 180.738l-38.961 50.775-253.873-194.804 28.168-36.709h29.122z"
     id="path5" />
  <path
     style="fill:#ffffff;stroke-width:0.633663"
     d="M 0.31683168,416 V 320.31683 H 32 63.683168 v 64 64 H 256 448.31683 v -64 -64 H 480 511.68317 V 416 511.68317 H 256 0.31683168 Z"
     id="path105" />
  <path
     style="fill:#ffffff;stroke-width:0.633663"
     d="m 96,384 v -32 h 160 160 v 32 32 H 256 96 Z"
     id="path144" />
  <path
     style="fill:#ffffff;stroke-width:0.633663"
     d="m 259.36582,316.93254 c -84.929,-18.87528 -154.59912,-34.5076 -154.82248,-34.73851 -0.36051,-0.3727 12.72827,-60.66696 13.29209,-61.23078 0.31224,-0.31224 310.40507,68.39153 310.99479,68.90361 0.26059,0.22627 -2.56227,14.15622 -6.27301,30.95544 -5.52004,24.99032 -6.93119,30.53357 -7.76091,30.48647 -0.55777,-0.0317 -70.50149,-15.50096 -155.43048,-34.37623 z"
     id="path183" />
  <path
     style="fill:#ffffff;stroke-width:0.633663"
     d="M 288,222.97008 C 210.10693,186.64466 145.02859,156.26153 143.38147,155.45203 l -2.99477,-1.47183 13.36928,-28.6541 c 11.32358,-24.26957 13.52711,-28.569802 14.40071,-28.10325 0.56729,0.302961 64.76212,30.26535 142.65519,66.58308 77.89307,36.31773 142.50375,66.50083 143.5793,67.07355 l 1.95553,1.04131 -13.19495,28.19802 c -7.25723,15.50891 -13.26989,28.3554 -13.36148,28.54775 C 429.6987,288.85892 365.89307,259.2955 288,222.97008 Z"
     id="path222" />
  <path
     style="fill:#ffffff;stroke-width:0.633663"
     d="M 330.43837,133.95587 C 260.91905,80.614007 204.0396,36.761657 204.0396,36.506206 c 0,-0.255451 6.1307,-8.490243 13.62377,-18.299537 L 231.28713,0.37158983 245.69919,0.34421076 260.11125,0.31683168 377.50117,90.374147 c 64.56445,49.531523 117.48752,90.143963 117.6068,90.249883 0.16102,0.14297 -35.54903,47.14957 -37.87501,49.85641 -0.2177,0.25335 -57.27526,-43.1827 -126.79459,-96.52457 z"
     id="path261" />
</svg>
