<?xml version="1.0" encoding="UTF-8" standalone="no"?>
<!-- Generated by IcoMoon.io -->

<svg
   version="1.1"
   width="512"
   height="512"
   viewBox="0 0 512 512"
   id="svg7"
   sodipodi:docname="twitter_light.svg"
   inkscape:version="1.1.2 (b8e25be833, 2022-02-05)"
   xmlns:inkscape="http://www.inkscape.org/namespaces/inkscape"
   xmlns:sodipodi="http://sodipodi.sourceforge.net/DTD/sodipodi-0.dtd"
   xmlns="http://www.w3.org/2000/svg"
   xmlns:svg="http://www.w3.org/2000/svg">
  <defs
     id="defs11" />
  <sodipodi:namedview
     id="namedview9"
     pagecolor="#ffffff"
     bordercolor="#666666"
     borderopacity="1.0"
     inkscape:pageshadow="2"
     inkscape:pageopacity="0.0"
     inkscape:pagecheckerboard="0"
     showgrid="false"
     inkscape:zoom="1.578125"
     inkscape:cx="255.68317"
     inkscape:cy="254.73267"
     inkscape:window-width="1920"
     inkscape:window-height="1001"
     inkscape:window-x="-9"
     inkscape:window-y="-9"
     inkscape:window-maximized="1"
     inkscape:current-layer="svg7" />
  <title
     id="title2" />
  <g
     id="icomoon-ignore" />
  <path
     d="M512 113.2c-18.8 8.4-39.1 14-60.3 16.5 21.7-13 38.3-33.6 46.2-58.1-20.3 12-42.8 20.8-66.7 25.5-19.2-20.4-46.5-33.1-76.7-33.1-58 0-105 47-105 105 0 8.2 0.9 16.2 2.7 23.9-87.3-4.4-164.7-46.2-216.5-109.8-9 15.5-14.2 33.6-14.2 52.8 0 36.4 18.5 68.6 46.7 87.4-17.2-0.5-33.4-5.3-47.6-13.1 0 0.4 0 0.9 0 1.3 0 50.9 36.2 93.4 84.3 103-8.8 2.4-18.1 3.7-27.7 3.7-6.8 0-13.3-0.7-19.8-1.9 13.4 41.7 52.2 72.1 98.1 73-36 28.2-81.2 45-130.5 45-8.5 0-16.8-0.5-25.1-1.5 46.6 29.9 101.8 47.2 161.1 47.2 193.2 0 298.9-160.1 298.9-298.9 0-4.6-0.1-9.1-0.3-13.6 20.5-14.7 38.3-33.2 52.4-54.3z"
     id="path5" />
  <path
     style="fill:#ffffff;stroke-width:0.633663"
     d="M 147.9604,479.2872 C 106.25456,477.65325 64.466276,466.68084 26.352103,447.35633 17.057623,442.64388 4.7329095,435.71431 3.285484,434.38713 c -0.2840728,-0.26047 6.7020658,-0.33067 15.524753,-0.15599 9.964569,0.19729 19.281811,0.0311 24.595704,-0.4388 33.498493,-2.96196 65.601409,-13.6464 93.491709,-31.11578 8.20048,-5.13646 18.66671,-12.60769 18.66671,-13.32508 0,-0.22415 -2.8292,-0.57993 -6.28711,-0.79059 -3.45791,-0.21066 -9.63747,-1.13445 -13.73235,-2.05286 -31.74962,-7.12086 -57.373741,-27.10459 -71.873356,-56.05258 -2.227376,-4.44689 -5.691346,-12.69784 -5.691346,-13.55642 0,-0.12131 1.354455,0.0754 3.009901,0.43711 1.655446,0.36173 8.855446,0.67731 16,0.70129 11.201432,0.0376 14.015309,-0.16093 20.435644,-1.44184 4.095047,-0.817 7.445547,-1.71703 7.445547,-2.00007 0,-0.28305 -0.92674,-0.69945 -2.05941,-0.92534 -5.149699,-1.02702 -15.2883,-4.51714 -21.069306,-7.25292 -30.176613,-14.28064 -51.062044,-40.28767 -58.299148,-72.59548 -1.534515,-6.85037 -2.981601,-22.49505 -2.080725,-22.49505 0.176799,0 2.713806,1.10526 5.637792,2.45613 6.822226,3.15186 15.939017,6.15282 23.460284,7.72241 5.854652,1.22178 17.658035,2.36922 17.658035,1.71658 0,-0.18459 -2.209901,-1.98652 -4.910891,-4.00429 -2.70099,-2.01776 -7.762376,-6.55468 -11.247525,-10.08204 -14.349012,-14.52279 -23.722195,-32.2766 -28.28308,-53.57116 -1.903244,-8.88616 -2.092161,-28.8538 -0.356713,-37.70297 1.531619,-7.80984 5.095407,-19.037426 8.124016,-25.594423 4.384767,-9.493104 3.469518,-9.358225 10.230914,-1.50772 33.195894,38.543003 79.018447,69.555653 127.532727,86.313993 24.28844,8.38998 52.66626,14.20682 76.31646,15.64324 l 7.19096,0.43674 -0.40919,-1.5271 c -2.72705,-10.17748 -2.95025,-31.3962 -0.45384,-43.14429 10.81567,-50.898391 56.15642,-86.430471 107.11765,-83.944629 25.55148,1.246377 48.65499,10.931203 67.21937,28.177874 l 5.08245,4.721702 5.19562,-1.116165 c 16.01782,-3.441076 33.8779,-9.963849 50.37249,-18.396805 11.68846,-5.975793 11.11724,-6.268777 6.82757,3.501936 -5.36534,12.220768 -13.45114,23.837487 -22.98327,33.019607 -5.41213,5.21341 -12.73117,11.01194 -17.13998,13.57919 -2.51757,1.46599 -2.65243,2.26136 -0.31683,1.86847 0.95842,-0.16123 5.30693,-0.87763 9.66337,-1.59201 13.82625,-2.26728 37.49909,-9.12225 45.2074,-13.09075 0.9908,-0.51011 1.92487,-0.80405 2.0757,-0.65322 0.44544,0.44544 -6.42508,9.73602 -12.79216,17.29805 -7.60245,9.02924 -22.96249,23.87999 -31.38994,30.34916 l -6.58615,5.05572 -0.0497,14.90468 c -0.0698,20.91019 -1.73368,36.95843 -5.98754,57.75058 -9.54209,46.64007 -31.56859,93.80597 -61.00857,130.6392 -26.28482,32.88569 -56.38176,57.76241 -92.63732,76.56966 -45.00938,23.34821 -96.76894,34.31766 -151.76237,32.16312 z"
     id="path124" />
</svg>
