<!-- Generated by IcoMoon.io -->
<svg version="1.1" xmlns="http://www.w3.org/2000/svg" width="768" height="768" viewBox="0 0 768 768">
<title></title>
<g id="icomoon-ignore">
</g>
<path fill="#000" d="M384 64c-159.072 0-288 128.928-288 288s128.928 288 288 288 288-128.928 288-288-128.928-288-288-288zM384 256c0-17.696 14.304-32 32-32s32 14.304 32 32v96c-17.664 0-32 14.336-32 32s14.336 32 32 32c17.696 0 32-14.336 32-32h32v-64l32 32-32 32c0 96 0 96-64 128 0-32-32-32-96-32v-64l-64-64v-64c-32 0-32 32-32 32l-70.816-70.784c37.344-71.904 112.384-121.216 198.816-121.216 22.016 0 43.296 3.328 63.392 9.28-2.752 28.64-18.528 54.72-47.392 54.72-32 0-48 32-48 64s0 96 0 96 32 0 32-96zM384 576c-123.488 0-224-100.48-224-224 0-24.832 4.256-48.672 11.744-71.008l148.256 148.256v50.752c0 17.664 14.304 32 32 32 24.928 0 52.832 0 64.192 2.912 1.216 9.632 6.688 18.624 14.976 23.744 5.376 3.328 11.52 5.12 17.664 5.12 4.64 0 9.248-1.024 13.504-3.136 75.136-37.568 81.248-52.608 81.664-143.328l22.656-22.656c12.512-12.512 12.512-32.736 0-45.248l-32-32c-6.144-6.144-14.336-9.408-22.656-9.408-4.128 0-8.288 0.8-12.256 2.432-11.936 4.96-19.744 16.64-19.744 29.568v-64c0-22.048-11.232-41.536-28.256-53.056 13.472-13.152 22.784-31.84 26.432-53.92 76.544 35.68 129.824 113.12 129.824 202.976 0 123.52-100.512 224-224 224z"></path>
</svg>
