<!-- Generated by IcoMoon.io -->
<svg version="1.1" xmlns="http://www.w3.org/2000/svg" width="768" height="768" viewBox="0 0 768 768">
<title></title>
<g id="icomoon-ignore">
</g>
<path fill="#000" d="M384 64c-159.072 0-288 128.928-288 288s128.928 288 288 288 288-128.928 288-288-128.928-288-288-288zM448 128c0 32-16 64-48 64s-48 32-48 64 0 96 0 96 32 0 32-96c0-17.696 14.304-32 32-32s32 14.304 32 32v96c-17.664 0-32 14.336-32 32s14.336 32 32 32c17.696 0 32-14.336 32-32h32v-64l32 32-32 32c0 96 0 96-64 128 0-32-32-32-96-32v-64l-64-64v-64c-32 0-32 32-32 32l-94.432-94.432c3.52-6.144 7.2-12.224 11.2-18.048l16.736-21.696c46.976-54.912 116.608-89.824 194.496-89.824 22.112 0 43.488 3.136 64 8.384v23.616z"></path>
</svg>
